<svg width="195" height="36" viewBox="0 0 195 36" fill="none" xmlns="http://www.w3.org/2000/svg">
<path d="M183.826 31.988C181.46 31.988 179.429 31.5206 177.735 30.5857C176.041 29.6509 174.741 28.3217 173.835 26.5982C172.959 24.8746 172.521 22.8589 172.521 20.5511C172.521 18.214 172.959 16.1837 173.835 14.4601C174.741 12.7366 176.041 11.4074 177.735 10.4725C179.429 9.53772 181.46 9.07031 183.826 9.07031C186.192 9.07031 188.193 9.53772 189.829 10.4725C191.494 11.4074 192.765 12.7366 193.642 14.4601C194.547 16.1837 195 18.214 195 20.5511C195 22.8589 194.547 24.8746 193.642 26.5982C192.765 28.3217 191.494 29.6509 189.829 30.5857C188.193 31.5206 186.192 31.988 183.826 31.988ZM183.826 26.2038C185.608 26.2038 186.85 25.7948 187.551 24.9768C188.252 24.1589 188.602 22.6836 188.602 20.5511C188.602 18.3893 188.252 16.8994 187.551 16.0815C186.85 15.2635 185.608 14.8545 183.826 14.8545C182.044 14.8545 180.788 15.2635 180.057 16.0815C179.356 16.8994 179.006 18.3893 179.006 20.5511C179.006 22.6836 179.356 24.1589 180.057 24.9768C180.788 25.7948 182.044 26.2038 183.826 26.2038Z" fill="#070708"/>
<path d="M169.482 31.5501H162.953V2.19092H169.482V31.5501Z" fill="#070708"/>
<path d="M149.2 31.988C146.688 31.988 144.614 31.5206 142.978 30.5857C141.342 29.6509 140.13 28.3363 139.341 26.642C138.552 24.9184 138.158 22.9027 138.158 20.5949C138.158 18.2286 138.596 16.1837 139.473 14.4601C140.378 12.7366 141.664 11.4074 143.329 10.4725C144.994 9.53772 146.966 9.07031 149.244 9.07031C151.465 9.07031 153.349 9.4793 154.897 10.2973C156.475 11.1152 157.672 12.2545 158.49 13.7152C159.337 15.1466 159.761 16.8264 159.761 18.7544C159.761 19.3679 159.717 19.9668 159.63 20.5511C159.571 21.1353 159.513 21.6173 159.454 21.9971H141.05V18.0095H153.845L153.407 18.3601C153.524 17.5129 153.422 16.8118 153.1 16.2567C152.808 15.6725 152.312 15.2343 151.611 14.9421C150.939 14.6208 150.077 14.4601 149.025 14.4601C147.214 14.4601 145.972 14.8691 145.301 15.6871C144.629 16.505 144.293 17.6736 144.293 19.1926V21.1207C144.293 22.3477 144.424 23.3409 144.687 24.1004C144.979 24.86 145.49 25.415 146.221 25.7656C146.951 26.1161 147.974 26.2914 149.288 26.2914C150.603 26.2914 151.552 26.1454 152.136 25.8532C152.75 25.5319 153.057 25.0353 153.057 24.3634V24.1004H159.542V24.5386C159.542 26.1161 159.118 27.4599 158.271 28.57C157.424 29.6801 156.226 30.5273 154.678 31.1116C153.13 31.6958 151.304 31.988 149.2 31.988Z" fill="#070708"/>
<path d="M132.21 31.6376C129.347 31.6376 127.214 31.068 125.812 29.9287C124.41 28.7894 123.709 26.9197 123.709 24.3198V10.166L125.111 4.38184H130.282V23.5748C130.282 24.5389 130.515 25.1377 130.983 25.3714C131.45 25.6051 132.385 25.722 133.787 25.722H136.504V31.1994C135.978 31.3163 135.321 31.4185 134.532 31.5062C133.773 31.5938 132.998 31.6376 132.21 31.6376ZM136.504 14.9424H120.203V9.50873H136.504V14.9424Z" fill="#070708"/>
<path d="M109.904 31.988C106.457 31.988 103.871 31.3307 102.148 30.0161C100.453 28.7015 99.6061 26.715 99.6061 24.0566V23.9252H105.872V24.8454C105.872 25.3712 106.004 25.7802 106.267 26.0723C106.53 26.3645 106.953 26.5689 107.537 26.6858C108.151 26.7734 108.983 26.8173 110.035 26.8173C110.941 26.8173 111.613 26.7734 112.051 26.6858C112.489 26.5689 112.781 26.4083 112.927 26.2038C113.073 25.9701 113.146 25.6779 113.146 25.3274C113.146 24.7139 112.913 24.3049 112.445 24.1004C112.007 23.8667 111.058 23.6184 109.597 23.3555L106.267 22.742C104.835 22.4791 103.623 22.0847 102.63 21.5589C101.636 21.0331 100.877 20.332 100.351 19.4556C99.8252 18.55 99.5623 17.4106 99.5623 16.0376C99.5623 13.9927 100.366 12.3276 101.972 11.0422C103.608 9.72761 106.004 9.07031 109.159 9.07031C110.97 9.07031 112.591 9.34784 114.023 9.90289C115.454 10.4579 116.579 11.2905 117.397 12.4006C118.244 13.5107 118.668 14.8983 118.668 16.5635V17.1769H112.401V16.5635C112.401 16.0668 112.314 15.6579 112.138 15.3365C111.963 14.986 111.627 14.7377 111.131 14.5916C110.634 14.4163 109.918 14.3287 108.983 14.3287C107.669 14.3287 106.792 14.4747 106.354 14.7669C105.945 15.0298 105.741 15.4242 105.741 15.95C105.741 16.4758 105.916 16.8556 106.267 17.0893C106.617 17.323 107.45 17.5713 108.764 17.8342L112.796 18.6668C114.344 18.9589 115.6 19.3971 116.564 19.9814C117.528 20.5364 118.229 21.2522 118.668 22.1286C119.135 23.005 119.369 24.042 119.369 25.2398C119.369 27.3139 118.551 28.9644 116.915 30.1914C115.308 31.3891 112.971 31.988 109.904 31.988Z" fill="#070708"/>
<path d="M85.7881 31.988C83.4219 31.988 81.3916 31.5206 79.6972 30.5857C78.0028 29.6509 76.7029 28.3217 75.7973 26.5982C74.9209 24.8746 74.4827 22.8589 74.4827 20.5511C74.4827 18.214 74.9209 16.1837 75.7973 14.4601C76.7029 12.7366 78.0028 11.4074 79.6972 10.4725C81.3916 9.53772 83.4219 9.07031 85.7881 9.07031C88.1544 9.07031 90.1555 9.53772 91.7914 10.4725C93.4566 11.4074 94.7273 12.7366 95.6037 14.4601C96.5093 16.1837 96.9621 18.214 96.9621 20.5511C96.9621 22.8589 96.5093 24.8746 95.6037 26.5982C94.7273 28.3217 93.4566 29.6509 91.7914 30.5857C90.1555 31.5206 88.1544 31.988 85.7881 31.988ZM85.7881 26.2038C87.5701 26.2038 88.8117 25.7948 89.5128 24.9768C90.2139 24.1589 90.5645 22.6836 90.5645 20.5511C90.5645 18.3893 90.2139 16.8994 89.5128 16.0815C88.8117 15.2635 87.5701 14.8545 85.7881 14.8545C84.0061 14.8545 82.75 15.2635 82.0196 16.0815C81.3185 16.8994 80.968 18.3893 80.968 20.5511C80.968 22.6836 81.3185 24.1589 82.0196 24.9768C82.75 25.7948 84.0061 26.2038 85.7881 26.2038Z" fill="#070708"/>
<path d="M71.6011 31.5501H65.0282V2.19092H71.6011V31.5501ZM52.2329 31.5501H45.6599V2.19092H52.2329V31.5501ZM68.3585 19.7188H47.5003V13.8469H68.3585V19.7188Z" fill="#070708"/>
<rect width="38.7804" height="35.2748" fill="#BB0020"/>
<path d="M10.6574 9.20166H5.03906V26.2913H10.6574V20.7898C19.9277 20.0407 22.1672 12.7522 22.1282 9.20166H16.5099V15.2884H10.6574V9.20166Z" fill="white"/>
<path d="M28.1226 26.2915H33.741V9.20185H28.1226V14.7033C18.8523 15.4525 16.6128 22.7409 16.6518 26.2915H22.2702V20.2048H28.1226V26.2915Z" fill="white"/>
</svg>
